<?xml version="1.0" encoding="UTF-8"?>
<svg width="752pt" height="752pt" version="1.1" viewBox="0 0 752 752" xmlns="http://www.w3.org/2000/svg">
 <g>
  <path d="m376 546.49c94.012 0 170.49-76.48 170.49-170.49 0-94.012-76.48-170.49-170.49-170.49-94.012 0-170.49 76.48-170.49 170.49-0.003907 94.008 76.477 170.49 170.49 170.49zm0-326.77c86.172 0 156.28 70.109 156.28 156.28s-70.109 156.28-156.28 156.28-156.28-70.109-156.28-156.28c0-86.176 70.105-156.28 156.28-156.28z"/>
  <path d="m450.4 451.21-71.535-71.539 74.449-73.367-48.297-48.305-0.4375 0.44141-116.27 116.26 119.3 119.3z"/>
 </g>
</svg>
