<svg id="Layer_1" data-name="Layer 1" xmlns="http://www.w3.org/2000/svg" viewBox="0 0 65 30"><defs><style>.cls-1{fill:#fe9196;fill-rule:evenodd;}.cls-2{fill:#ff5a61;}.cls-3{fill:#fa2f43;}.cls-4{fill:#e03;}.cls-5{fill:#fffeff;}</style></defs><path class="cls-1" d="M33.59,29.22,17.29,12.87a2.64,2.64,0,0,1,1.5-4.47L45.48,4.65a2.63,2.63,0,0,1,2.7,3.82L37.79,28.57a2.62,2.62,0,0,1-4.2.65"/><path class="cls-2" d="M28.8.44a3.31,3.31,0,0,0-4.93,3.22l.41,4L38.09,5.69ZM46.12,16.2a4,4,0,0,0,.67-5l-4.37,8.46ZM26.16,26a4,4,0,0,0,6.67,2.52h0l-7.16-7.19Z"/><path class="cls-3" d="M43.7,17.14l3.09-6A4,4,0,0,0,45.37,9.8L38.09,5.69,24.28,7.63l1.4,13.65,7.16,7.19,9.58-8.85,1.28-2.48"/><path class="cls-4" d="M30,10.77h-.28a.2.2,0,0,0-.2.2v.51a.31.31,0,0,1,.34-.26H30a.2.2,0,0,0,.2-.2v0a.2.2,0,0,0-.2-.2"/><path class="cls-5" d="M32.79,12.3c0,.06,0,.14-.15.14h-1c-.24,0-.44.11-.44.25v-.25a.49.49,0,0,1,.14-.42.91.91,0,0,1,.64-.16,1.16,1.16,0,0,1,.58.11A.39.39,0,0,1,32.79,12.3Zm7.32,0c0,.06,0,.14-.15.14H39c-.25,0-.45.11-.45.25v-.25a.52.52,0,0,1,.14-.42.93.93,0,0,1,.64-.16,1.12,1.12,0,0,1,.58.11A.4.4,0,0,1,40.11,12.3Zm1.76-1.22a.2.2,0,0,0-.2-.2h-.28a.2.2,0,0,0-.2.2v2a.66.66,0,0,0,.31.62,1.35,1.35,0,0,0,.82.18h.22a.2.2,0,0,0,.2-.2v-.21h-.17a1,1,0,0,1-.52-.11c-.2-.13-.18-.36-.18-.53Zm-4.33,2.41a1.06,1.06,0,0,1-.53-.11c-.2-.13-.18-.36-.18-.53v-1h.66a.2.2,0,0,0,.2-.2v-.22h-.86v-.37a.2.2,0,0,0-.2-.2h-.28a.2.2,0,0,0-.2.2v.37H34.74v-.37a.2.2,0,0,0-.2-.2h-.27a.2.2,0,0,0-.2.2v.37h-.43v.22a.2.2,0,0,0,.2.2h.23V13.1a.68.68,0,0,0,.3.62,1.35,1.35,0,0,0,.82.18h.23a.2.2,0,0,0,.2-.2v-.21h-.17a1.08,1.08,0,0,1-.53-.11.58.58,0,0,1-.18-.53v-1h1.41V13.1a.66.66,0,0,0,.31.62,1.35,1.35,0,0,0,.82.18h.22a.2.2,0,0,0,.2-.2v-.21Zm-4.14.21v-.21H31.9c-.25,0-.54,0-.62-.29a1.67,1.67,0,0,1,0-.34H33a.53.53,0,0,0,.33-.09.44.44,0,0,0,.14-.37.8.8,0,0,0-.43-.8,2.34,2.34,0,0,0-1-.16,2.16,2.16,0,0,0-1.15.23c-.33.24-.36.57-.36,1a1.32,1.32,0,0,0,.22.89,1.14,1.14,0,0,0,.93.31H33.2A.2.2,0,0,0,33.4,13.7Zm7.31,0v-.21h-1.5c-.25,0-.53,0-.62-.29a1.67,1.67,0,0,1,0-.34h1.79a.5.5,0,0,0,.32-.09.45.45,0,0,0,.15-.37.81.81,0,0,0-.43-.8,2.41,2.41,0,0,0-1-.16,2.11,2.11,0,0,0-1.14.23c-.34.24-.37.57-.37,1a1.32,1.32,0,0,0,.22.89,1.18,1.18,0,0,0,.94.31h1.5A.2.2,0,0,0,40.71,13.7ZM30,11.45h-.28a.2.2,0,0,0-.2.2v2a.19.19,0,0,0,.2.2H30a.19.19,0,0,0,.2-.2v-2A.2.2,0,0,0,30,11.45Zm-1,0a.43.43,0,0,0-.39.26l-.74,1.56s0,.1-.08.1-.06-.06-.08-.1l-.74-1.56a.44.44,0,0,0-.39-.26h-.43l1.17,2.26a.61.61,0,0,0,.94,0l1.17-2.26Zm1.84,6.24a.71.71,0,0,1-.73.5H28.85V16.26c0-.16.07-.21.28-.21h.72c.12,0,.24,0,.36,0a.65.65,0,0,1,.59.47,1.59,1.59,0,0,1,.06.3A2.39,2.39,0,0,1,30.8,17.69Zm2.39-.19a.32.32,0,0,1,.32-.21h1.63V18c0,.15-.07.2-.27.2H33.64c-.3,0-.43-.08-.48-.31A.74.74,0,0,1,33.19,17.5Zm2.87-1a.86.86,0,0,0,0-.23.82.82,0,0,0-.42-.59,1.51,1.51,0,0,0-.76-.16H32.51a.55.55,0,0,0,.55.56h1.52a.58.58,0,0,1,.47.17.8.8,0,0,1,.09.5h-2a.92.92,0,0,0-.79.37,1,1,0,0,0-.16.58,1.18,1.18,0,0,0,.12.64.88.88,0,0,0,.83.41h2.34a.56.56,0,0,0,.52-.28.93.93,0,0,0,.05-.29Zm-4.36-.17a1.17,1.17,0,0,0-.77-.71,2.43,2.43,0,0,0-.77-.11H28.64l-.2,0a.52.52,0,0,0-.49.35.78.78,0,0,0,0,.22v3.7h.15a.78.78,0,0,0,.77-.77v-.28h1.63a1.32,1.32,0,0,0,1.2-.75,2,2,0,0,0,.14-.63A2.42,2.42,0,0,0,31.7,16.32Zm4.53-.82h1L38.54,18l1.08-1.87a1.25,1.25,0,0,1,1.08-.62h.22l-2.25,3.85a.88.88,0,0,1-.77.45h-.44l.65-1.07Z"/></svg>