<svg id="Layer_1" data-name="Layer 1" xmlns="http://www.w3.org/2000/svg" viewBox="0 0 65 30"><defs><style>.cls-1{fill:#ec2227;}.cls-2{fill:#ec2224;fill-rule:evenodd;}</style></defs><path class="cls-1" d="M15.47,14.37l0-4.84L11.09,4.86H4.51L0,9.53v4.88l.68.66L0,15.66v4.87l4.48,4.61,6.6,0,4.36-4.57,0-5L14.81,15ZM7.75,23.7,2.4,18.07l.66-.68,1.45,1.5h6.58l1.39-1.46.59.61ZM5.36,15,7.69,12.6l2.45,2.45L7.72,17.56Zm7.16-2.45-1.44-1.48H4.52L3,12.59l-.59-.65,5.36-5.6,5.33,5.56Z"/><path class="cls-2" d="M63.56,16.64H65L63,15l1.84-1.59H63.44l-1.29,1.23h-.63V13.36h-1v3.28h1V15.33h.56l1.48,1.31m-8.37-3.28v3.28h.93V14h.08L58,16.64h1.67V13.36h-.9v2.56h-.1l-1.8-2.56H55.19M45,13.37v3.27h3.39a.87.87,0,0,0,.41-.07.46.46,0,0,0,.18-.13.59.59,0,0,0,.13-.18.43.43,0,0,0,.06-.22v-.48a.58.58,0,0,0,0-.19.33.33,0,0,0-.07-.13.53.53,0,0,0-.14-.12.68.68,0,0,0-.39-.11.61.61,0,0,0,.18-.05.49.49,0,0,0,.15-.1.53.53,0,0,0,.12-.14.41.41,0,0,0,0-.18v-.71a.4.4,0,0,0,0-.15.36.36,0,0,0-.08-.12.35.35,0,0,0-.11-.1.52.52,0,0,0-.29-.09H45m3.05,1.3a.29.29,0,0,0,.14-.15.33.33,0,0,0,0-.35.23.23,0,0,0-.19-.11H46v.64h2a.17.17,0,0,0,.1,0m0,1.23.09,0a.34.34,0,0,0,.14-.25.34.34,0,0,0-.12-.27.29.29,0,0,0-.19-.06H46v.64h2.14m6.56.74-1.8-3.28H51.36l-1.79,3.28h1L51,16h2.22l.34.66h1.14m-3.4-1.27H53L52.27,14H52l-.73,1.33M23.8,16.64h2.42a1.52,1.52,0,0,0,.28-.09.66.66,0,0,0,.23-.17,1,1,0,0,0,.17-.25.91.91,0,0,0,.08-.29.49.49,0,0,0,0-.14V13.36H26v2.13a.27.27,0,0,1-.13.25.35.35,0,0,1-.17.06H24.07a.31.31,0,0,1-.13,0l-.1-.06a.33.33,0,0,1-.11-.23V13.36h-.94v2.47a.74.74,0,0,0,.08.29.94.94,0,0,0,.16.23,1.24,1.24,0,0,0,.23.17,1.17,1.17,0,0,0,.26.1,1.32,1.32,0,0,0,.28,0m9.69-3.28h-1v3.28h3.42v-.75H33.49V13.36m4.08,0h-.94v3.28h.94V13.36m3.88,1.13h.86V14a.79.79,0,0,0-.21-.42.62.62,0,0,0-.18-.14.9.9,0,0,0-.43-.09H39.38a1.32,1.32,0,0,0-.28,0,1.43,1.43,0,0,0-.27.09,1.24,1.24,0,0,0-.22.18.72.72,0,0,0-.17.22.8.8,0,0,0-.1.32c0,.14,0,.34,0,.53s0,.37,0,.56a4.15,4.15,0,0,0,0,.54.71.71,0,0,0,.11.33.91.91,0,0,0,.2.24,1.19,1.19,0,0,0,.57.24h2.14a1.66,1.66,0,0,0,.32,0,1,1,0,0,0,.29-.13.92.92,0,0,0,.36-.46,1.75,1.75,0,0,0,.07-.42v-.2h-.93a.54.54,0,0,1-.05.21.83.83,0,0,1-.07.13.5.5,0,0,1-.27.14H39.61a.24.24,0,0,1-.14-.05.47.47,0,0,1-.13-.11.5.5,0,0,1-.1-.31v-.87a.35.35,0,0,1,0-.14.75.75,0,0,1,.07-.12.46.46,0,0,1,.37-.17h1.53l.09.06a.23.23,0,0,1,.07.07.4.4,0,0,1,.05.22M18.11,13.36v3.28h.94v-.82h2.28a.55.55,0,0,0,.28-.09.76.76,0,0,0,.23-.17A1.32,1.32,0,0,0,22,15.3a.65.65,0,0,0,.08-.28V14.1a.59.59,0,0,0,0-.23.82.82,0,0,0-.12-.2.65.65,0,0,0-.17-.16.68.68,0,0,0-.43-.15h-3.2m3.07,1.33a1.13,1.13,0,0,0,0-.26l0-.11a.35.35,0,0,0-.06-.09.27.27,0,0,0-.08-.07.21.21,0,0,0-.12,0h-1.8V15h1.83L21,15a.45.45,0,0,0,.15-.19.3.3,0,0,0,0-.1m6.52-1.32v3.27h3.38a.91.91,0,0,0,.42-.07.52.52,0,0,0,.17-.13.59.59,0,0,0,.13-.18.43.43,0,0,0,.06-.22v-.48a.58.58,0,0,0,0-.19.33.33,0,0,0-.07-.13.53.53,0,0,0-.14-.12.66.66,0,0,0-.39-.11.61.61,0,0,0,.18-.05.54.54,0,0,0,.16-.1.81.81,0,0,0,.12-.14.61.61,0,0,0,.05-.18v-.71a.42.42,0,0,0,0-.15.36.36,0,0,0-.08-.12.35.35,0,0,0-.11-.1.52.52,0,0,0-.29-.09H27.7m3.19,1.15a.33.33,0,0,0-.05-.35.23.23,0,0,0-.19-.11h-2v.64h2a.29.29,0,0,0,.1,0l.09-.06a.41.41,0,0,0,.05-.09M31,15.79a.29.29,0,0,0,.06-.25A.2.2,0,0,0,31,15.4a.33.33,0,0,0-.24-.13H28.65v.64H30.7a.31.31,0,0,0,.18-.05.23.23,0,0,0,.07-.07"/></svg>