<svg id="Layer_1" data-name="Layer 1" xmlns="http://www.w3.org/2000/svg" viewBox="0 0 65 30"><defs><style>.cls-1{fill:#2673be;}</style></defs><path class="cls-1" d="M16.77,25.8v.81h-2a1.06,1.06,0,0,0-.27,0,.43.43,0,0,0-.18.08.34.34,0,0,0-.09.12.75.75,0,0,0,0,.16.52.52,0,0,0,.07.21.29.29,0,0,0,.2.13l.37,0h.67a1.85,1.85,0,0,1,.74.13.76.76,0,0,1,.26.18,1.09,1.09,0,0,1,.21.26,1.73,1.73,0,0,1,.14.34,1.6,1.6,0,0,1,.05.39,1.58,1.58,0,0,1-.2.8.9.9,0,0,1-.5.43,2.89,2.89,0,0,1-.8.09H13.15v-.83h2a1,1,0,0,0,.31,0,.63.63,0,0,0,.22-.09.29.29,0,0,0,.12-.13.25.25,0,0,0,0-.17.37.37,0,0,0-.12-.27.5.5,0,0,0-.36-.09H14.5a1.76,1.76,0,0,1-.7-.12,1,1,0,0,1-.27-.19,1.51,1.51,0,0,1-.22-.28,1.59,1.59,0,0,1-.13-.35,1.23,1.23,0,0,1,0-.39,1.48,1.48,0,0,1,.17-.73.8.8,0,0,1,.22-.26,1.08,1.08,0,0,1,.3-.16,1.53,1.53,0,0,1,.37-.08,2.61,2.61,0,0,1,.4,0h2.18Z"/><path class="cls-1" d="M18.71,28.31h1.11l-.56-1.57Zm1.23-2.51L21.45,30H20.4l-.27-.76H18.34l.34-.83L18.08,30H17l1.54-4.17Z"/><rect class="cls-1" x="21.61" y="25.8" width="1" height="4.17"/><path class="cls-1" d="M26.75,25.8v.9H25l-.32.05a.9.9,0,0,0-.24.12.79.79,0,0,0-.17.19,2.23,2.23,0,0,0-.17.43,2.72,2.72,0,0,0,0,.42,1.37,1.37,0,0,0,.17.72,1.16,1.16,0,0,0,.19.23,1,1,0,0,0,.23.12l.3.07h.84v-.75H24.69v-.89h2.06V30H24.92a3.3,3.3,0,0,1-1-.13,1.15,1.15,0,0,1-.61-.5,2.37,2.37,0,0,1-.29-.71,3.62,3.62,0,0,1-.08-.76,3.57,3.57,0,0,1,.08-.74,2.44,2.44,0,0,1,.28-.71,1,1,0,0,1,.62-.5,3.63,3.63,0,0,1,1-.12Z"/><path class="cls-1" d="M28,27.8a2.13,2.13,0,0,0,.09.65.75.75,0,0,0,.35.47,1.13,1.13,0,0,0,.62.17,1.11,1.11,0,0,0,.5-.12.71.71,0,0,0,.37-.33.86.86,0,0,0,.15-.4,1.76,1.76,0,0,0,0-.23s0-.06,0-.09a2,2,0,0,0-.09-.59.88.88,0,0,0-.29-.45,1.2,1.2,0,0,0-.34-.15,1.9,1.9,0,0,0-.4-.05,1.38,1.38,0,0,0-.45.09.69.69,0,0,0-.41.36A1.54,1.54,0,0,0,28,27.8Zm1.1-2,.43,0a3,3,0,0,1,.43.09,1.38,1.38,0,0,1,.39.18,1,1,0,0,1,.31.28,1.84,1.84,0,0,1,.35.73,3.52,3.52,0,0,1,0,1.82,1.83,1.83,0,0,1-.38.68,1.22,1.22,0,0,1-.52.31,3.52,3.52,0,0,1-.51.1l-.47,0a4,4,0,0,1-.88-.09,1.51,1.51,0,0,1-.68-.34,1.53,1.53,0,0,1-.43-.73,3.79,3.79,0,0,1-.14-1v-.11a.25.25,0,0,1,0-.09l.07-.46a1.65,1.65,0,0,1,.3-.73,1.23,1.23,0,0,1,.36-.36,1.52,1.52,0,0,1,.43-.2,1.86,1.86,0,0,1,.47-.09A3.87,3.87,0,0,1,29.14,25.76Z"/><polygon class="cls-1" points="32.99 25.8 34.25 29.26 34.25 25.8 35.17 25.8 35.17 29.97 33.59 29.97 32.41 26.59 32.41 29.97 31.48 29.97 31.48 25.8 32.99 25.8"/><path class="cls-1" d="M36.53,29.08h1.19a1.92,1.92,0,0,0,.39,0,.25.25,0,0,0,.18-.14.41.41,0,0,0,.06-.2.29.29,0,0,0-.16-.29,1.11,1.11,0,0,0-.59-.09H36.46l.07-.78Zm0-1.67h1.15a1.11,1.11,0,0,0,.51-.09.32.32,0,0,0,0-.54.8.8,0,0,0-.52-.1H36.53Zm1.52-1.61h.35a1.11,1.11,0,0,1,.28,0,1.12,1.12,0,0,1,.22.1.64.64,0,0,1,.17.16,1.1,1.1,0,0,1,.22.39,1.34,1.34,0,0,1,.06.4.86.86,0,0,1,0,.15,1.62,1.62,0,0,1,0,.19.86.86,0,0,1-.2.39,1.09,1.09,0,0,1-.45.26,1,1,0,0,1,.51.35,1.16,1.16,0,0,1,.21.7,1.14,1.14,0,0,1-.18.61.73.73,0,0,1-.43.34,2.25,2.25,0,0,1-.65.08H35.53V25.8Z"/><path class="cls-1" d="M41.18,28.31H42.3l-.56-1.57Zm1.24-2.51L43.93,30h-1l-.28-.76H40.73l.43-.83L40.56,30H39.48L41,25.8Z"/><polygon class="cls-1" points="45.59 25.8 46.85 29.26 46.85 25.8 47.77 25.8 47.77 29.97 46.19 29.97 45.01 26.59 45.01 29.97 44.08 29.97 44.08 25.8 45.59 25.8"/><polygon class="cls-1" points="49.12 25.8 49.12 27.77 50.59 25.8 51.81 25.8 50.32 27.88 51.87 29.97 50.61 29.97 49.12 27.98 49.12 29.97 48.12 29.97 48.12 25.8 49.12 25.8"/><path class="cls-1" d="M27.77,9.74c.17-1.84,2.06-3.21,4.4-3.3a7.67,7.67,0,0,1,.83,0,6.18,6.18,0,0,1,1.87.46A5,5,0,0,1,36.61,8.1V6.93a7.47,7.47,0,0,0-1.74-.88,8.93,8.93,0,0,0-2.32-.48l-.38,0c-3.46-.11-6.35,1.74-6.54,4.25-.17,2.28,1.95,4.34,4.93,5l.38-1.17C29,13,27.62,11.42,27.77,9.74Z"/><path class="cls-1" d="M34.87,10.6h1.8c0-.4-.25-.43-.7-.45-.08-.4-.48-.65-1.1-.85-.44-.15-1-.27-1.59-.43v-1c-.34-.3-.67-.61-1-.9l-.1,0a8.1,8.1,0,0,0-1.94,1.26l.7.11c0,.16,0,.32,0,.49l-.87.41c-.05.13-.08.26-.13.39a1.87,1.87,0,0,0-1.26,1h2.47V9.71h1.32v.89Z"/><polygon class="cls-1" points="32.17 15.89 33.41 12.43 34.87 12.35 38.91 12.14 39.26 11.44 34.87 11.42 32.17 11.4 29.84 11.39 30.57 12.64 31.86 12.56 30.62 16.37 32 16.37 32.17 15.89"/><path class="cls-1" d="M33.14,13.91V15a10.41,10.41,0,0,0,1.73-.29,7,7,0,0,0,1.74-.76V12.55a4.46,4.46,0,0,1-1.74,1A6.39,6.39,0,0,1,33.14,13.91Z"/><path class="cls-1" d="M31.57,20.36l-.1-.07-.09-.09-8.83-8.83-.09-.09-.07-.1-.05-.08L22.29,11l0-.1v-.1l0-.11v-.21l0-.12v-.09l0-.1.05-.1.05-.09.06-.1.1-.1L31.38,1l.1-.09.09-.07.09-.05.1-.05.1,0,.1,0,.11,0h.21l.11,0,.11,0,.09,0,.11.05.07.05.11.07L33,1l1.9,1.9L41.8,9.77l.09.1L42,10l0,.09.05.1,0,.1,0,.09v.44l0,.1,0,.1-.05.1-.06.09-.06.1-.09.09h0L34.87,18.3,33,20.2l-.09.09-.1.06-.09.06-.1,0-.09,0-.11,0-.11,0h-.21l-.11,0-.1,0-.1,0-.1,0Zm.13.72.13,0h.69l.13,0h0l.13,0,0,0L33,21l0,0,.12-.07h0l.11-.08,0,0,.13-.12h0l1.46-1.47,7.37-7.36v0l.12-.12,0,0,.08-.11v0l.08-.11v0l.06-.11v0l0-.13v0l0-.14v0l0-.13v-.37l0-.13v0l0-.14v0l0-.14v0l-.06-.12v0l-.08-.12v0l-.08-.12,0,0-.12-.12v0L34.87,2,33.41.51h0L33.27.4l0,0L33.14.29l0,0L33,.2l0,0-.12,0h0l-.13,0h0l-.13,0h0l-.13,0H32l-.14,0h0l-.13,0h0l-.13,0h0l-.13,0,0,0-.11.07,0,0-.11.08,0,0L31,.51h0L22.12,9.34v0L22,9.48l0,0-.08.12v0l-.08.12v0l-.06.12v0l0,.14v0l0,.14v0l0,.13v.37l0,.13v0l0,.14v0l0,.13v0l.06.11v0l.08.11v0l.08.11,0,0,.12.12v0l8.82,8.83h0l.14.12,0,0,.11.08h0l.11.07,0,0,.13.05,0,0,.13,0Z"/></svg>